<svg width="38" height="37" viewBox="0 0 38 37" fill="none" xmlns="http://www.w3.org/2000/svg">
<g filter="url(#filter0_i_88_884)">
<path fill-rule="evenodd" clip-rule="evenodd" d="M1.5835 4.37521C1.5835 3.6237 1.8901 2.90297 2.43586 2.37157C2.98163 1.84017 3.72184 1.54163 4.49366 1.54163H33.5035C33.886 1.54102 34.2649 1.61388 34.6184 1.75602C34.9719 1.89817 35.2932 2.10682 35.5638 2.37002C35.8344 2.63323 36.0491 2.94582 36.1954 3.2899C36.3418 3.63397 36.417 4.00279 36.4168 4.37521V32.6216C36.4172 32.9941 36.3422 33.3631 36.1961 33.7073C36.0499 34.0515 35.8355 34.3643 35.565 34.6278C35.2946 34.8913 34.9734 35.1003 34.62 35.2428C34.2665 35.3853 33.8876 35.4585 33.5051 35.4583H4.49366C4.11136 35.4583 3.73281 35.385 3.37962 35.2425C3.02644 35.1 2.70556 34.8911 2.4353 34.6278C2.16505 34.3645 1.95072 34.052 1.80457 33.708C1.65841 33.364 1.58329 32.9954 1.5835 32.6232V4.37521ZM15.3712 14.4731H20.0879V16.7795C20.7687 15.4536 22.5104 14.2604 25.1277 14.2604C30.1452 14.2604 31.3343 16.9013 31.3343 21.7467V30.7223H26.2566V22.8505C26.2566 20.091 25.5757 18.5339 23.8467 18.5339C21.448 18.5339 20.4505 20.2128 20.4505 22.8505V30.7223H15.3712V14.4731ZM6.66283 30.5111H11.7422V14.2604H6.66283V30.5095V30.5111ZM12.4689 8.96013C12.4785 9.38358 12.4011 9.80464 12.2413 10.1986C12.0815 10.5925 11.8425 10.9514 11.5383 11.2542C11.2341 11.557 10.8709 11.7975 10.4699 11.9618C10.0689 12.126 9.63829 12.2106 9.20329 12.2106C8.76829 12.2106 8.33766 12.126 7.93669 11.9618C7.53572 11.7975 7.17249 11.557 6.8683 11.2542C6.56411 10.9514 6.32509 10.5925 6.16528 10.1986C6.00547 9.80464 5.92809 9.38358 5.93766 8.96013C5.95646 8.12895 6.30877 7.33797 6.91915 6.7566C7.52952 6.17523 8.34944 5.84969 9.20329 5.84969C10.0571 5.84969 10.8771 6.17523 11.4874 6.7566C12.0978 7.33797 12.4501 8.12895 12.4689 8.96013V8.96013Z" fill="white"/>
</g>
<defs>
<filter id="filter0_i_88_884" x="0" y="0" width="38" height="41" filterUnits="userSpaceOnUse" color-interpolation-filters="sRGB">
<feFlood flood-opacity="0" result="BackgroundImageFix"/>
<feBlend mode="normal" in="SourceGraphic" in2="BackgroundImageFix" result="shape"/>
<feColorMatrix in="SourceAlpha" type="matrix" values="0 0 0 0 0 0 0 0 0 0 0 0 0 0 0 0 0 0 127 0" result="hardAlpha"/>
<feOffset dy="4"/>
<feGaussianBlur stdDeviation="7.5"/>
<feComposite in2="hardAlpha" operator="arithmetic" k2="-1" k3="1"/>
<feColorMatrix type="matrix" values="0 0 0 0 0 0 0 0 0 0 0 0 0 0 0 0 0 0 0.2 0"/>
<feBlend mode="normal" in2="shape" result="effect1_innerShadow_88_884"/>
</filter>
</defs>
</svg>
