<svg width="43" height="34" viewBox="0 0 43 34" fill="none" xmlns="http://www.w3.org/2000/svg">
<path fill-rule="evenodd" clip-rule="evenodd" d="M12.0339 0.019939C10.9323 0.147771 9.92532 0.495809 8.94777 1.08658C5.05789 3.43744 1.94362 9.48624 0.864539 16.7866C0.668795 18.1108 0.559987 19.2451 0.492726 20.662C0.445776 21.6513 0.471047 23.6363 0.540089 24.3792C0.826903 27.466 1.63023 29.8134 2.97215 31.4858C3.75421 32.4605 4.62559 33.1235 5.67291 33.5408C6.48863 33.8658 7.22459 34.0002 8.18768 34.0001C10.0348 33.9999 11.3867 33.435 12.8165 32.0661C13.4842 31.4269 14.5042 30.1156 15.2553 28.931C16.5871 26.8305 17.4501 25.1497 20.2174 19.267L21.7405 16.029L22.0715 16.6851C22.5009 17.5364 24.0322 20.6108 24.9607 22.4858C27.2816 27.1725 28.6287 29.4589 30.078 31.1716C31.5204 32.876 32.8616 33.6925 34.6299 33.943C35.1032 34.01 36.0771 34.0187 36.5266 33.9599C37.7499 33.8 38.8455 33.2971 39.7496 32.4806C40.0545 32.2052 40.6225 31.5424 40.8739 31.1686C41.9058 29.6343 42.5998 27.434 42.8646 24.8574C43.0654 22.9039 43.042 20.4438 42.8 18.0871C42.1002 11.2711 39.627 5.32489 36.2037 2.228C34.15 0.370119 31.8067 -0.362333 29.617 0.169191C27.3179 0.727299 25.0828 2.79086 22.701 6.55467C22.5279 6.82816 22.3689 7.07502 22.3476 7.10321C22.3162 7.14487 22.2426 7.05578 21.9561 6.62941C18.8371 1.9886 16.0239 -0.0333432 12.7334 0.000890667C12.4099 0.00425668 12.0951 0.0128245 12.0339 0.019939ZM31.6783 4.48813C32.7902 4.78621 33.8001 5.51843 34.7806 6.73727C35.4438 7.5616 35.9702 8.42908 36.4805 9.53818C37.8338 12.4799 38.6202 15.9553 38.8995 20.2291C38.9614 21.1764 38.952 23.5434 38.884 24.1497C38.6067 26.6219 37.8426 27.9888 36.5166 28.3847C36.1414 28.4967 35.4354 28.5044 35.0637 28.4005C34.0787 28.1251 33.3854 27.4272 32.2091 25.5267C31.355 24.1469 29.5322 20.6953 27.4822 16.5762C25.924 13.4452 25.3994 12.4285 24.6141 11.0173L24.3942 10.6222L24.7583 9.9654C26.6133 6.61939 28.2099 4.90333 29.8689 4.47248C30.1283 4.40509 30.2537 4.39663 30.8042 4.40945C31.2414 4.41958 31.5144 4.44418 31.6783 4.48813ZM13.3372 5.62182C14.583 5.82994 15.6445 6.55796 16.899 8.06467C17.6419 8.95701 18.355 9.99313 19.2055 11.416L19.5639 12.0156L19.4592 12.2113C19.4017 12.3189 18.9925 13.0782 18.55 13.8987C17.4701 15.901 16.5133 17.6931 15.4664 19.6745C14.3385 21.8092 14.0431 22.3522 13.4067 23.4612C11.5903 26.6264 10.5141 27.9157 9.3536 28.3168C8.47001 28.6222 7.56112 28.5096 6.84757 28.0064C6.58262 27.8195 6.14711 27.3061 5.94777 26.9456C5.50924 26.1525 5.22426 25.0776 5.10007 23.7481C5.04861 23.1972 5.04883 21.3726 5.10049 20.5925C5.45647 15.214 6.9983 10.3165 9.18703 7.61198C10.203 6.35657 11.1453 5.73474 12.2882 5.56548C12.4463 5.54207 13.0556 5.57482 13.3372 5.62182Z" fill="white"/>
<path d="M26.2943 14.2282C20.9073 3.69176 17.3205 0 12.6931 0L12.6348 5.53595C15.6645 5.53595 18.0139 8.40908 23.1229 18.7565L23.4343 19.3865L26.2943 14.2282Z" fill="white"/>
</svg>
