<svg width="41" height="40" viewBox="0 0 41 40" fill="none" xmlns="http://www.w3.org/2000/svg">
<mask id="mask0_88_876" style="mask-type:alpha" maskUnits="userSpaceOnUse" x="0" y="0" width="41" height="40">
<path d="M20.5376 0C9.21835 0 0.0415039 8.94737 0.0415039 19.9836C0.0415039 28.4539 5.43965 35.6908 13.0645 38.602C12.879 37.023 12.7271 34.5888 13.132 32.8618C13.5031 31.2993 15.5274 22.9276 15.5274 22.9276C15.5274 22.9276 14.9201 21.727 14.9201 19.9671C14.9201 17.1875 16.5733 15.1151 18.6314 15.1151C20.3858 15.1151 21.2292 16.398 21.2292 17.9276C21.2292 19.6382 20.1158 22.2039 19.5254 24.5888C19.0362 26.5789 20.5544 28.2072 22.5619 28.2072C26.2056 28.2072 29.0059 24.4572 29.0059 19.0625C29.0059 14.2763 25.4802 10.9375 20.4364 10.9375C14.5996 10.9375 11.1752 15.1974 11.1752 19.6053C11.1752 21.3158 11.8499 23.1579 12.6934 24.1612C12.8621 24.3586 12.879 24.5395 12.8284 24.7368C12.6765 25.3618 12.3223 26.727 12.2548 27.0066C12.1705 27.3684 11.9512 27.4507 11.5632 27.2697C8.99905 26.102 7.39647 22.4671 7.39647 19.523C7.39647 13.2237 12.0861 7.43421 20.9424 7.43421C28.0444 7.43421 33.5775 12.3684 33.5775 18.9803C33.5775 25.8717 29.124 31.4145 22.9499 31.4145C20.875 31.4145 18.9181 30.3618 18.2602 29.1118C18.2602 29.1118 17.2312 32.9276 16.9782 33.8651C16.5227 35.6086 15.2744 37.7796 14.4309 39.1118C16.354 39.6875 18.3783 40 20.5038 40C31.8231 40 40.9999 31.0526 40.9999 20.0164C41.0336 8.94737 31.8568 0 20.5376 0Z" fill="white"/>
</mask>
<g mask="url(#mask0_88_876)">
<rect x="-0.0561523" y="-0.0809326" width="6.8541" height="40.0962" fill="white"/>
<rect x="6.79736" y="-0.0809326" width="6.8541" height="40.0962" fill="white"/>
<rect x="13.6523" y="-0.0809326" width="6.8541" height="40.0962" fill="white"/>
<rect x="20.5059" y="-0.0809326" width="6.8541" height="40.0962" fill="white"/>
<rect x="27.2915" y="-0.0809326" width="6.8541" height="40.0962" fill="white"/>
<rect x="34.146" y="-0.0809326" width="6.8541" height="40.0962" fill="white"/>
</g>
</svg>
