<svg width="46" height="37" viewBox="0 0 46 37" fill="none" xmlns="http://www.w3.org/2000/svg">
<g filter="url(#filter0_i_88_866)">
<path fill-rule="evenodd" clip-rule="evenodd" d="M14.3078 1.64338C16.556 1.56013 17.2728 1.54163 22.9998 1.54163C28.7268 1.54163 29.4437 1.56167 31.69 1.64338C33.9363 1.72508 35.4697 2.01338 36.8113 2.43117C38.2163 2.85821 39.4908 3.52575 40.545 4.38908C41.6183 5.23546 42.4463 6.25913 42.9753 7.39071C43.4967 8.46988 43.8532 9.70321 43.9567 11.507C44.0602 13.3184 44.0832 13.895 44.0832 18.5C44.0832 23.1065 44.0583 23.683 43.9567 25.4914C43.8551 27.2952 43.4967 28.5285 42.9753 29.6077C42.4463 30.7394 41.617 31.7648 40.545 32.6124C39.4908 33.4757 38.2163 34.1417 36.8113 34.5672C35.4697 34.9865 33.9363 35.2733 31.6938 35.3565C29.4437 35.4398 28.7268 35.4583 22.9998 35.4583C17.2728 35.4583 16.556 35.4382 14.3078 35.3565C12.0653 35.2748 10.5319 34.9865 9.19025 34.5672C7.78327 34.1417 6.50849 33.4746 5.45467 32.6124C4.38207 31.7655 3.55202 30.7406 3.02242 29.6092C2.503 28.53 2.1465 27.2967 2.043 25.493C1.9395 23.6815 1.9165 23.1049 1.9165 18.5C1.9165 13.8935 1.94142 13.3169 2.043 11.51C2.14459 9.70321 2.503 8.46988 3.02242 7.39071C3.55281 6.25925 4.38348 5.2344 5.45659 4.38754C6.50891 3.52498 7.78241 2.85735 9.18834 2.43117C10.53 2.01338 12.0633 1.72663 14.3058 1.64338H14.3078ZM31.5194 4.69588C29.2961 4.61417 28.6291 4.59721 22.9998 4.59721C17.3706 4.59721 16.7036 4.61417 14.4803 4.69588C12.4237 4.77142 11.3082 5.04738 10.5645 5.28017C9.58125 5.5885 8.87784 5.95388 8.13992 6.54742C7.44042 7.09479 6.9021 7.76114 6.56442 8.49763C6.275 9.09579 5.93192 9.99304 5.838 11.6472C5.73642 13.4356 5.71534 13.9721 5.71534 18.5C5.71534 23.0278 5.73642 23.5643 5.838 25.3527C5.93192 27.0069 6.275 27.9041 6.56442 28.5023C6.90175 29.2377 7.44034 29.9052 8.13992 30.4525C8.82034 31.0152 9.65025 31.4484 10.5645 31.7197C11.3082 31.9525 12.4237 32.2285 14.4803 32.304C16.7036 32.3857 17.3687 32.4027 22.9998 32.4027C28.631 32.4027 29.2961 32.3857 31.5194 32.304C33.576 32.2285 34.6915 31.9525 35.4352 31.7197C36.4184 31.4114 37.1218 31.046 37.8598 30.4525C38.5593 29.9052 39.0979 29.2377 39.4353 28.5023C39.7247 27.9041 40.0678 27.0069 40.1617 25.3527C40.2633 23.5643 40.2843 23.0278 40.2843 18.5C40.2843 13.9721 40.2633 13.4356 40.1617 11.6472C40.0678 9.99304 39.7247 9.09579 39.4353 8.49763C39.0519 7.70675 38.5977 7.14096 37.8598 6.54742C37.1792 5.98482 36.3508 5.55183 35.4352 5.28017C34.6915 5.04738 33.576 4.77142 31.5194 4.69588ZM20.3069 23.7277C21.8108 24.2313 23.4855 24.2993 25.0448 23.92C26.6041 23.5408 27.9513 22.7379 28.8564 21.6484C29.7615 20.559 30.1683 19.2505 30.0073 17.9467C29.8462 16.6428 29.1274 15.4243 27.9736 14.4993C27.238 13.9081 26.3487 13.4553 25.3695 13.1737C24.3903 12.8921 23.3457 12.7886 22.3108 12.8707C21.2759 12.9528 20.2765 13.2185 19.3846 13.6485C18.4927 14.0786 17.7304 14.6624 17.1527 15.3578C16.5749 16.0533 16.196 16.8431 16.0433 17.6705C15.8906 18.4978 15.9679 19.3422 16.2695 20.1426C16.5712 20.9431 17.0898 21.6798 17.7879 22.2997C18.486 22.9197 19.3463 23.4074 20.3069 23.7277ZM15.337 12.3364C16.3433 11.527 17.5379 10.8849 18.8527 10.4468C20.1675 10.0088 21.5767 9.78333 22.9998 9.78333C24.423 9.78333 25.8321 10.0088 27.1469 10.4468C28.4617 10.8849 29.6564 11.527 30.6627 12.3364C31.669 13.1458 32.4672 14.1067 33.0118 15.1643C33.5564 16.2218 33.8367 17.3553 33.8367 18.5C33.8367 19.6446 33.5564 20.7781 33.0118 21.8357C32.4672 22.8932 31.669 23.8541 30.6627 24.6635C28.6304 26.2982 25.874 27.2166 22.9998 27.2166C20.1257 27.2166 17.3693 26.2982 15.337 24.6635C13.3047 23.0289 12.163 20.8118 12.163 18.5C12.163 16.1882 13.3047 13.9711 15.337 12.3364ZM36.2402 11.0815C36.4895 10.8922 36.6892 10.6647 36.8273 10.4123C36.9653 10.16 37.0391 9.88785 37.0441 9.61214C37.049 9.33643 36.9852 9.06272 36.8563 8.80721C36.7275 8.5517 36.5362 8.31958 36.2938 8.1246C36.0514 7.92963 35.7628 7.77575 35.4451 7.67209C35.1275 7.56843 34.7872 7.51709 34.4444 7.52111C34.1016 7.52513 33.7633 7.58442 33.4496 7.69549C33.1358 7.80656 32.8529 7.96713 32.6177 8.16771C32.1602 8.5578 31.9097 9.07594 31.9194 9.61214C31.9291 10.1483 32.1983 10.6604 32.6697 11.0396C33.1411 11.4188 33.7778 11.6353 34.4444 11.6431C35.111 11.6509 35.7552 11.4494 36.2402 11.0815Z" fill="white"/>
</g>
<defs>
<filter id="filter0_i_88_866" x="0" y="0" width="46" height="41" filterUnits="userSpaceOnUse" color-interpolation-filters="sRGB">
<feFlood flood-opacity="0" result="BackgroundImageFix"/>
<feBlend mode="normal" in="SourceGraphic" in2="BackgroundImageFix" result="shape"/>
<feColorMatrix in="SourceAlpha" type="matrix" values="0 0 0 0 0 0 0 0 0 0 0 0 0 0 0 0 0 0 127 0" result="hardAlpha"/>
<feOffset dy="4"/>
<feGaussianBlur stdDeviation="7.5"/>
<feComposite in2="hardAlpha" operator="arithmetic" k2="-1" k3="1"/>
<feColorMatrix type="matrix" values="0 0 0 0 0 0 0 0 0 0 0 0 0 0 0 0 0 0 0.2 0"/>
<feBlend mode="normal" in2="shape" result="effect1_innerShadow_88_866"/>
</filter>
</defs>
</svg>
