<svg width="1920" height="328" viewBox="0 0 1920 328" fill="none" xmlns="http://www.w3.org/2000/svg">
<rect width="1920" height="328" fill="#1E273B"/>
<path fill-rule="evenodd" clip-rule="evenodd" d="M1920 196L1856 203.333C1792 210.667 1664 225.333 1536 243.667C1408 262 1280 284 1152 273C1024 262 896 218 768 218C640 218 512 262 384 251C256 240 128 174 64 141L-2.86102e-05 108V328H64C128 328 256 328 384 328C512 328 640 328 768 328C896 328 1024 328 1152 328C1280 328 1408 328 1536 328C1664 328 1792 328 1856 328H1920V196Z" fill="#252E42" fill-opacity="0.61"/>
</svg>
