<svg width="46" height="40" viewBox="0 0 46 40" fill="none" xmlns="http://www.w3.org/2000/svg">
<g filter="url(#filter0_i_88_873)">
<path d="M45.3157 8.2283C43.7153 8.84497 41.9961 9.26163 40.1887 9.44997C42.0536 8.47962 43.4488 6.95241 44.114 5.1533C42.3619 6.05828 40.4442 6.69529 38.4445 7.03663C37.0997 5.78807 35.3185 4.96051 33.3774 4.68242C31.4364 4.40434 29.444 4.69128 27.7097 5.49872C25.9754 6.30616 24.5961 7.5889 23.7861 9.14781C22.9761 10.7067 22.7806 12.4545 23.23 14.12C19.6797 13.965 16.2066 13.1625 13.036 11.7648C9.86549 10.3671 7.06834 8.40523 4.82615 6.00663C4.05948 7.15663 3.61865 8.48997 3.61865 9.90997C3.61779 11.1883 3.97981 12.447 4.67258 13.5745C5.36535 14.702 6.36746 15.6634 7.58998 16.3733C6.17218 16.3341 4.78566 16.0009 3.54582 15.4016V15.5016C3.54567 17.2945 4.25888 19.0323 5.56442 20.42C6.86995 21.8077 8.68741 22.7598 10.7084 23.115C9.39315 23.4245 8.01421 23.4701 6.67573 23.2483C7.24593 24.791 8.35664 26.14 9.85235 27.1065C11.3481 28.073 13.1539 28.6086 15.0171 28.6383C11.8542 30.7973 7.94818 31.9684 3.92723 31.9633C3.21496 31.9635 2.50329 31.9273 1.7959 31.855C5.87739 34.1369 10.6286 35.348 15.4809 35.3433C31.9067 35.3433 40.8863 23.5133 40.8863 13.2533C40.8863 12.92 40.8767 12.5833 40.8595 12.25C42.6061 11.1516 44.1138 9.79146 45.3119 8.2333L45.3157 8.2283Z" fill="white"/>
</g>
<defs>
<filter id="filter0_i_88_873" x="0" y="0" width="46" height="44" filterUnits="userSpaceOnUse" color-interpolation-filters="sRGB">
<feFlood flood-opacity="0" result="BackgroundImageFix"/>
<feBlend mode="normal" in="SourceGraphic" in2="BackgroundImageFix" result="shape"/>
<feColorMatrix in="SourceAlpha" type="matrix" values="0 0 0 0 0 0 0 0 0 0 0 0 0 0 0 0 0 0 127 0" result="hardAlpha"/>
<feOffset dy="4"/>
<feGaussianBlur stdDeviation="7.5"/>
<feComposite in2="hardAlpha" operator="arithmetic" k2="-1" k3="1"/>
<feColorMatrix type="matrix" values="0 0 0 0 0 0 0 0 0 0 0 0 0 0 0 0 0 0 0.2 0"/>
<feBlend mode="normal" in2="shape" result="effect1_innerShadow_88_873"/>
</filter>
</defs>
</svg>
