<svg width="1920" height="990" viewBox="0 0 1920 990" fill="none" xmlns="http://www.w3.org/2000/svg">
<rect width="1920" height="990" fill="url(#paint0_linear_29_737)"/>
<path fill-rule="evenodd" clip-rule="evenodd" d="M0 567.613L52.8 546.937C107.2 526.261 212.8 484.908 320 471.124C427.2 457.34 532.8 471.124 640 519.368C747.2 567.613 852.8 650.318 960 664.102C1067.2 677.887 1172.8 622.75 1280 602.074C1387.2 581.397 1492.8 595.182 1600 615.858C1707.2 636.534 1812.8 664.102 1867.2 677.887L1920 691.671V402.203V14.7688C1865.6 14.7688 1746.7 0 1639.5 0C1532.3 0 1401.2 14.7688 1294 14.7688C1186.8 14.7688 1109.7 14.7688 1002.5 14.7688C895.3 14.7688 805.2 14.7688 698 14.7688C590.8 14.7688 448.7 14.7688 341.5 14.7688C234.3 14.7688 183 14.7688 183 14.7688H0V567.613Z" fill="url(#paint1_linear_29_737)"/>
<path fill-rule="evenodd" clip-rule="evenodd" d="M0 387.252L40 453.548C80 518.7 160 651.291 240 727.874C320 804.457 400 826.174 480 793.026C560 761.022 640 673.009 720 661.578C800 651.291 880 716.444 960 761.022C1040 804.457 1120 826.174 1200 826.174C1280 826.174 1360 804.457 1440 749.591C1520 694.726 1600 606.713 1680 606.713C1760 606.713 1840 694.726 1880 738.161L1920 782.739V914.187H1880C1840 914.187 1760 914.187 1680 914.187C1600 914.187 1520 914.187 1440 914.187C1360 914.187 1280 914.187 1200 914.187C1120 914.187 1040 914.187 960 914.187C880 914.187 800 914.187 720 914.187C640 914.187 560 914.187 480 914.187C400 914.187 320 914.187 240 914.187C160 914.187 80 914.187 40 914.187H0V387.252Z" fill="url(#paint2_linear_29_737)"/>
<path fill-rule="evenodd" clip-rule="evenodd" d="M0 552L40 597.511C80 642.237 160 733.259 240 785.832C320 838.405 400 853.314 480 830.559C560 808.588 640 748.168 720 740.321C800 733.259 880 777.986 960 808.588C1040 838.405 1120 853.314 1200 853.314C1280 853.314 1360 838.405 1440 800.741C1520 763.077 1600 702.657 1680 702.657C1760 702.657 1840 763.077 1880 792.894L1920 823.496V913.734H1880C1840 913.734 1760 913.734 1680 913.734C1600 913.734 1520 913.734 1440 913.734C1360 913.734 1280 913.734 1200 913.734C1120 913.734 1040 913.734 960 913.734C880 913.734 800 913.734 720 913.734C640 913.734 560 913.734 480 913.734C400 913.734 320 913.734 240 913.734C160 913.734 80 913.734 40 913.734H0V552Z" fill="url(#paint3_linear_29_737)"/>
<path fill-rule="evenodd" clip-rule="evenodd" d="M0 765.214L53 787.849C107 810.483 213 854.972 320 832.338C427 810.483 533 719.945 640 698.09C747 675.456 853 719.945 960 765.214C1067 810.483 1173 854.972 1280 862.777C1387 869.802 1493 840.143 1600 840.143C1707 840.143 1813 869.802 1867 885.412L1920 900.242V990H1867C1813 990 1707 990 1600 990C1493 990 1387 990 1280 990C1173 990 1067 990 960 990C853 990 747 990 640 990C533 990 427 990 320 990C213 990 107 990 53 990H0V765.214Z" fill="white"/>
<defs>
<linearGradient id="paint0_linear_29_737" x1="0" y1="0" x2="1920" y2="990" gradientUnits="userSpaceOnUse">
<stop stop-color="#01C3CE"/>
<stop offset="1" stop-color="#7431E8"/>
</linearGradient>
<linearGradient id="paint1_linear_29_737" x1="401.503" y1="402.199" x2="1584.96" y2="1193.04" gradientUnits="userSpaceOnUse">
<stop stop-color="#01C3CE" stop-opacity="0.09"/>
<stop offset="1" stop-color="#6840E5"/>
</linearGradient>
<linearGradient id="paint2_linear_29_737" x1="1.13485e-05" y1="599.996" x2="1919.48" y2="783.716" gradientUnits="userSpaceOnUse">
<stop stop-color="#5D4EE3"/>
<stop offset="1" stop-color="#01C3CE"/>
</linearGradient>
<linearGradient id="paint3_linear_29_737" x1="1737.55" y1="767.388" x2="64.556" y2="588.263" gradientUnits="userSpaceOnUse">
<stop stop-color="#5D4EE3" stop-opacity="0.04"/>
<stop offset="1" stop-color="#01C3CE"/>
</linearGradient>
</defs>
</svg>
