<svg width="1920" height="318" viewBox="0 0 1920 318" fill="none" xmlns="http://www.w3.org/2000/svg">
<path fill-rule="evenodd" clip-rule="evenodd" d="M0 115.311L64 81.53C128 47.7485 256 -19.8143 384 7.21083C512 34.236 640 155.849 768 176.118C896 196.387 1024 115.311 1152 115.311C1280 115.311 1408 196.387 1536 209.899C1664 223.412 1792 169.362 1856 142.337L1920 115.311V318H1856C1792 318 1664 318 1536 318C1408 318 1280 318 1152 318C1024 318 896 318 768 318C640 318 512 318 384 318C256 318 128 318 64 318H0V115.311Z" fill="#259BD8"/>
<path fill-rule="evenodd" clip-rule="evenodd" d="M1920 100L1867 118.167C1813 136.333 1707 172.667 1600 205.215C1493 238.142 1387 267.285 1280 267.285C1173 267.285 1067 238.142 960 234.358C853 230.951 747 252.524 640 267.285C533 281.667 427 288.858 320 292.642C213 296.049 107 296.049 53 296.049H0V318H53C107 318 213 318 320 318C427 318 533 318 640 318C747 318 853 318 960 318C1067 318 1173 318 1280 318C1387 318 1493 318 1600 318C1707 318 1813 318 1867 318H1920V100Z" fill="url(#paint0_linear_85_436)"/>
<path fill-rule="evenodd" clip-rule="evenodd" d="M0 119.98L64 138.315C128 156.65 256 193.321 384 207.989C512 222.657 640 215.323 768 200.655C896 185.987 1024 163.984 1152 160.317C1280 156.65 1408 171.318 1536 185.987C1664 200.655 1792 215.323 1856 222.657L1920 229.991V318H1856C1792 318 1664 318 1536 318C1408 318 1280 318 1152 318C1024 318 896 318 768 318C640 318 512 318 384 318C256 318 128 318 64 318H0V119.98Z" fill="#7236E8" fill-opacity="0.54"/>
<path fill-rule="evenodd" clip-rule="evenodd" d="M1920 226.606L1856 235.068C1792 243.531 1664 260.456 1536 267.226C1408 273.996 1280 270.611 1152 263.841C1024 257.071 896 246.916 768 245.223C640 243.531 512 250.301 384 257.071C256 263.841 128 270.611 64 273.996L-2.86102e-05 277.38V318H64C128 318 256 318 384 318C512 318 640 318 768 318C896 318 1024 318 1152 318C1280 318 1408 318 1536 318C1664 318 1792 318 1856 318H1920V226.606Z" fill="#1E273B"/>
<defs>
<linearGradient id="paint0_linear_85_436" x1="1920" y1="209" x2="22.5001" y2="209" gradientUnits="userSpaceOnUse">
<stop stop-color="#7137E8"/>
<stop offset="1" stop-color="#249DD8"/>
</linearGradient>
</defs>
</svg>
