<svg width="61" height="60" viewBox="0 0 61 60" fill="none" xmlns="http://www.w3.org/2000/svg">
<g filter="url(#filter0_i_12_79)">
<path fill-rule="evenodd" clip-rule="evenodd" d="M18.9734 2.665C21.9548 2.53 22.9053 2.5 30.4998 2.5C38.0943 2.5 39.0449 2.5325 42.0238 2.665C45.0026 2.7975 47.0359 3.265 48.8151 3.9425C50.6781 4.635 52.3683 5.7175 53.7662 7.1175C55.1896 8.49 56.2876 10.15 56.9891 11.985C57.6804 13.735 58.1532 15.735 58.2904 18.66C58.4277 21.5975 58.4582 22.5325 58.4582 30C58.4582 37.47 58.4251 38.405 58.2904 41.3375C58.1557 44.2625 57.6804 46.2625 56.9891 48.0125C56.2876 49.8477 55.1877 51.5105 53.7662 52.885C52.3683 54.285 50.6781 55.365 48.8151 56.055C47.0359 56.735 45.0026 57.2 42.0288 57.335C39.0449 57.47 38.0943 57.5 30.4998 57.5C22.9053 57.5 21.9548 57.4675 18.9734 57.335C15.9996 57.2025 13.9663 56.735 12.1871 56.055C10.3213 55.3649 8.63088 54.2831 7.23342 52.885C5.81105 51.5117 4.71035 49.8497 4.00805 48.015C3.31925 46.265 2.8465 44.265 2.70925 41.34C2.572 38.4025 2.5415 37.4675 2.5415 30C2.5415 22.53 2.57455 21.595 2.70925 18.665C2.84396 15.735 3.31925 13.735 4.00805 11.985C4.71138 10.1502 5.81293 8.48828 7.23596 7.115C8.63144 5.71625 10.3202 4.63361 12.1846 3.9425C13.9638 3.265 15.9971 2.8 18.9708 2.665H18.9734ZM41.7975 7.615C38.8492 7.4825 37.9647 7.455 30.4998 7.455C23.035 7.455 22.1505 7.4825 19.2021 7.615C16.4749 7.7375 14.9957 8.185 14.0095 8.5625C12.7056 9.0625 11.7728 9.655 10.7943 10.6175C9.8667 11.5051 9.15284 12.5857 8.70504 13.78C8.32125 14.75 7.86629 16.205 7.74175 18.8875C7.60704 21.7875 7.57909 22.6575 7.57909 30C7.57909 37.3425 7.60704 38.2125 7.74175 41.1125C7.86629 43.795 8.32125 45.25 8.70504 46.22C9.15238 47.4125 9.86659 48.495 10.7943 49.3825C11.6966 50.295 12.7971 50.9975 14.0095 51.4375C14.9957 51.815 16.4749 52.2625 19.2021 52.385C22.1505 52.5175 23.0324 52.545 30.4998 52.545C37.9672 52.545 38.8492 52.5175 41.7975 52.385C44.5247 52.2625 46.004 51.815 46.9902 51.4375C48.294 50.9375 49.2268 50.345 50.2054 49.3825C51.1331 48.495 51.8473 47.4125 52.2946 46.22C52.6784 45.25 53.1334 43.795 53.2579 41.1125C53.3926 38.2125 53.4206 37.3425 53.4206 30C53.4206 22.6575 53.3926 21.7875 53.2579 18.8875C53.1334 16.205 52.6784 14.75 52.2946 13.78C51.7863 12.4975 51.1839 11.58 50.2054 10.6175C49.3029 9.70518 48.2043 9.00303 46.9902 8.5625C46.004 8.185 44.5247 7.7375 41.7975 7.615ZM26.9288 38.4775C28.9231 39.2941 31.1438 39.4043 33.2116 38.7893C35.2794 38.1743 37.066 36.8723 38.2662 35.1056C39.4664 33.3389 40.0058 31.2172 39.7923 29.1028C39.5788 26.9883 38.6256 25.0124 37.0955 23.5125C36.1201 22.5537 34.9407 21.8195 33.6422 21.3629C32.3437 20.9062 30.9584 20.7384 29.5861 20.8715C28.2138 21.0047 26.8885 21.4354 25.7058 22.1328C24.523 22.8302 23.5121 23.7769 22.746 24.9046C21.9798 26.0324 21.4774 27.3132 21.2749 28.6549C21.0724 29.9966 21.1748 31.3657 21.5749 32.6638C21.9749 33.9619 22.6626 35.1565 23.5883 36.1618C24.5141 37.1671 25.655 37.958 26.9288 38.4775ZM20.3383 20.005C21.6727 18.6924 23.2569 17.6513 25.0004 16.9409C26.744 16.2305 28.6127 15.8649 30.4998 15.8649C32.387 15.8649 34.2557 16.2305 35.9992 16.9409C37.7428 17.6513 39.327 18.6924 40.6614 20.005C41.9959 21.3176 43.0544 22.8758 43.7766 24.5907C44.4988 26.3057 44.8705 28.1438 44.8705 30C44.8705 31.8562 44.4988 33.6943 43.7766 35.4093C43.0544 37.1242 41.9959 38.6824 40.6614 39.995C37.9664 42.6458 34.3112 44.1351 30.4998 44.1351C26.6885 44.1351 23.0333 42.6458 20.3383 39.995C17.6432 37.3442 16.1292 33.7489 16.1292 30C16.1292 26.2511 17.6432 22.6558 20.3383 20.005ZM48.0577 17.97C48.3883 17.6632 48.6531 17.2942 48.8362 16.8849C49.0193 16.4757 49.1171 16.0344 49.1237 15.5873C49.1303 15.1402 49.0457 14.6964 48.8748 14.282C48.7039 13.8677 48.4502 13.4913 48.1287 13.1751C47.8073 12.8589 47.4246 12.6094 47.0034 12.4413C46.5821 12.2732 46.1308 12.1899 45.6763 12.1965C45.2217 12.203 44.7732 12.2991 44.3571 12.4792C43.941 12.6593 43.5659 12.9197 43.2539 13.245C42.6472 13.8776 42.3151 14.7178 42.328 15.5873C42.3409 16.4568 42.6978 17.2872 43.3229 17.9021C43.9481 18.517 44.7923 18.8681 45.6763 18.8807C46.5603 18.8934 47.4146 18.5667 48.0577 17.97Z" fill="#1E283C"/>
</g>
<defs>
<filter id="filter0_i_12_79" x="0" y="0" width="61" height="64" filterUnits="userSpaceOnUse" color-interpolation-filters="sRGB">
<feFlood flood-opacity="0" result="BackgroundImageFix"/>
<feBlend mode="normal" in="SourceGraphic" in2="BackgroundImageFix" result="shape"/>
<feColorMatrix in="SourceAlpha" type="matrix" values="0 0 0 0 0 0 0 0 0 0 0 0 0 0 0 0 0 0 127 0" result="hardAlpha"/>
<feOffset dy="4"/>
<feGaussianBlur stdDeviation="7.5"/>
<feComposite in2="hardAlpha" operator="arithmetic" k2="-1" k3="1"/>
<feColorMatrix type="matrix" values="0 0 0 0 0 0 0 0 0 0 0 0 0 0 0 0 0 0 0.2 0"/>
<feBlend mode="normal" in2="shape" result="effect1_innerShadow_12_79"/>
</filter>
</defs>
</svg>
