<svg width="60" height="61" viewBox="0 0 60 61" fill="none" xmlns="http://www.w3.org/2000/svg">
<g filter="url(#filter0_i_12_99)">
<path fill-rule="evenodd" clip-rule="evenodd" d="M2.5 7.21328C2.5 5.9743 2.98412 4.78606 3.84585 3.90997C4.70758 3.03388 5.87633 2.54169 7.095 2.54169H52.9C53.5039 2.54069 54.1021 2.6608 54.6604 2.89515C55.2186 3.12951 55.7258 3.47349 56.1531 3.90742C56.5804 4.34135 56.9193 4.8567 57.1504 5.42397C57.3815 5.99123 57.5003 6.59927 57.5 7.21328V53.7817C57.5007 54.3958 57.3822 55.004 57.1514 55.5716C56.9207 56.1391 56.5821 56.6548 56.1551 57.0892C55.728 57.5236 55.221 57.8681 54.6629 58.103C54.1048 58.3379 53.5066 58.4587 52.9025 58.4584H7.095C6.49137 58.4584 5.89365 58.3374 5.33599 58.1025C4.77834 57.8676 4.27168 57.5233 3.84496 57.0892C3.41824 56.6551 3.07983 56.1398 2.84906 55.5728C2.61828 55.0057 2.49967 54.3979 2.5 53.7842V7.21328ZM24.27 23.8612H31.7175V27.6635C32.7925 25.4777 35.5425 23.5104 39.675 23.5104C47.5975 23.5104 49.475 27.8643 49.475 35.8528V50.6504H41.4575V37.6726C41.4575 33.123 40.3825 30.5559 37.6525 30.5559C33.865 30.5559 32.29 33.3238 32.29 37.6726V50.6504H24.27V23.8612ZM10.52 50.3022H18.54V23.5104H10.52V50.2996V50.3022ZM19.6875 14.7722C19.7026 15.4703 19.5804 16.1645 19.3281 16.814C19.0758 17.4634 18.6984 18.0551 18.2181 18.5543C17.7378 19.0535 17.1643 19.4501 16.5311 19.7208C15.898 19.9916 15.2181 20.1311 14.5313 20.1311C13.8444 20.1311 13.1645 19.9916 12.5314 19.7208C11.8983 19.4501 11.3247 19.0535 10.8444 18.5543C10.3641 18.0551 9.98673 17.4634 9.7344 16.814C9.48207 16.1645 9.35988 15.4703 9.375 14.7722C9.40468 13.4019 9.96096 12.0978 10.9247 11.1394C11.8885 10.1809 13.1831 9.64417 14.5313 9.64417C15.8794 9.64417 17.174 10.1809 18.1378 11.1394C19.1015 12.0978 19.6578 13.4019 19.6875 14.7722Z" fill="#1D273B"/>
</g>
<defs>
<filter id="filter0_i_12_99" x="0" y="0" width="60" height="65" filterUnits="userSpaceOnUse" color-interpolation-filters="sRGB">
<feFlood flood-opacity="0" result="BackgroundImageFix"/>
<feBlend mode="normal" in="SourceGraphic" in2="BackgroundImageFix" result="shape"/>
<feColorMatrix in="SourceAlpha" type="matrix" values="0 0 0 0 0 0 0 0 0 0 0 0 0 0 0 0 0 0 127 0" result="hardAlpha"/>
<feOffset dy="4"/>
<feGaussianBlur stdDeviation="7.5"/>
<feComposite in2="hardAlpha" operator="arithmetic" k2="-1" k3="1"/>
<feColorMatrix type="matrix" values="0 0 0 0 0 0 0 0 0 0 0 0 0 0 0 0 0 0 0.2 0"/>
<feBlend mode="normal" in2="shape" result="effect1_innerShadow_12_99"/>
</filter>
</defs>
</svg>
