<svg width="58" height="45" viewBox="0 0 58 45" fill="none" xmlns="http://www.w3.org/2000/svg">
<path fill-rule="evenodd" clip-rule="evenodd" d="M15.5842 0.0257432C14.0998 0.191248 12.7429 0.641855 11.4256 1.40673C6.18394 4.4504 1.9874 12.2818 0.533332 21.7336C0.269563 23.4481 0.122944 24.9166 0.032308 26.7512C-0.0309572 28.0321 0.00309546 30.6019 0.09613 31.5639C0.482617 35.5603 1.56511 38.5995 3.37337 40.7648C4.42721 42.0268 5.6014 42.8852 7.01268 43.4254C8.11188 43.8462 9.10361 44.0202 10.4014 44.0201C12.8904 44.0198 14.7121 43.2885 16.6388 41.5162C17.5385 40.6885 18.913 38.9908 19.9251 37.4571C21.7197 34.7375 22.8827 32.5614 26.6116 24.945L28.664 20.7528L29.11 21.6022C29.6887 22.7044 31.7521 26.6849 33.0033 29.1125C36.1308 35.1804 37.946 38.1406 39.899 40.358C41.8426 42.5647 43.6498 43.6218 46.0327 43.9461C46.6705 44.0329 47.9828 44.0442 48.5885 43.9681C50.2369 43.761 51.7133 43.1099 52.9315 42.0528C53.3424 41.6963 54.1078 40.8381 54.4466 40.3542C55.8371 38.3676 56.7723 35.519 57.1291 32.1829C57.3997 29.6538 57.3681 26.4686 57.042 23.4174C56.0991 14.5927 52.7664 6.8941 48.1534 2.88454C45.386 0.479123 42.2284 -0.469187 39.2778 0.218981C36.1796 0.941567 33.1679 3.61327 29.9583 8.4863C29.7251 8.84039 29.5108 9.16001 29.4821 9.19651C29.4398 9.25044 29.3406 9.1351 28.9545 8.58307C24.7517 2.57458 20.9608 -0.0432416 16.5268 0.0010812C16.0909 0.0054392 15.6667 0.016532 15.5842 0.0257432ZM42.0554 5.81074C43.5536 6.19667 44.9146 7.14468 46.2358 8.72272C47.1294 9.78999 47.8388 10.9131 48.5264 12.3491C50.35 16.1577 51.4097 20.6573 51.786 26.1907C51.8694 27.4171 51.8568 30.4817 51.7652 31.2667C51.3915 34.4675 50.3619 36.2372 48.5751 36.7498C48.0694 36.8948 47.1181 36.9048 46.6172 36.7702C45.2899 36.4136 44.3557 35.51 42.7706 33.0496C41.6197 31.2631 39.1634 26.7943 36.4011 21.4612C34.3013 17.4075 33.5945 16.0912 32.5363 14.2641L32.24 13.7525L32.7306 12.9022C35.2302 8.57009 37.3816 6.34831 39.6171 5.79048C39.9667 5.70322 40.1356 5.69228 40.8775 5.70887C41.4667 5.72199 41.8345 5.75384 42.0554 5.81074ZM17.3404 7.27854C19.0192 7.54799 20.4496 8.49056 22.14 10.4413C23.1411 11.5966 24.102 12.9381 25.2481 14.7802L25.731 15.5566L25.59 15.8099C25.5124 15.9493 24.9611 16.9324 24.3648 17.9947C22.9096 20.587 21.6203 22.9074 20.2096 25.4726C18.6897 28.2364 18.2917 28.9395 17.4341 30.3753C14.9865 34.4733 13.5363 36.1425 11.9725 36.6619C10.7818 37.0573 9.55708 36.9115 8.59556 36.26C8.23854 36.0181 7.65167 35.3534 7.38307 34.8866C6.79213 33.8598 6.40813 32.4681 6.24078 30.7468C6.17143 30.0335 6.17173 27.6711 6.24134 26.6611C6.72103 19.6975 8.79867 13.3568 11.748 9.85521C13.1171 8.22982 14.3868 7.42473 15.9269 7.20559C16.14 7.17529 16.961 7.21768 17.3404 7.27854Z" fill="#1E283C"/>
<path d="M34.8004 18.4213C27.5414 4.77975 22.7081 0 16.4726 0L16.394 7.16743C20.4767 7.16743 23.6424 10.8873 30.5269 24.2842L30.9466 25.0998L34.8004 18.4213Z" fill="#1E283C"/>
</svg>
