<svg width="53" height="57" viewBox="0 0 53 57" fill="none" xmlns="http://www.w3.org/2000/svg">
<mask id="mask0_12_91" style="mask-type:alpha" maskUnits="userSpaceOnUse" x="0" y="0" width="53" height="57">
<path d="M26.5218 0C11.8748 0 0 12.75 0 28.4766C0 40.5469 6.98516 50.8594 16.8517 55.0078C16.6116 52.7578 16.4151 49.2891 16.939 46.8281C17.4192 44.6016 20.0387 32.6719 20.0387 32.6719C20.0387 32.6719 19.2528 30.9609 19.2528 28.4531C19.2528 24.4922 21.392 21.5391 24.0551 21.5391C26.3253 21.5391 27.4167 23.3672 27.4167 25.5469C27.4167 27.9844 25.9761 31.6406 25.2121 35.0391C24.579 37.875 26.5436 40.1953 29.1412 40.1953C33.8562 40.1953 37.4797 34.8516 37.4797 27.1641C37.4797 20.3438 32.9176 15.5859 26.3908 15.5859C18.8381 15.5859 14.4069 21.6562 14.4069 27.9375C14.4069 30.375 15.28 33 16.3715 34.4297C16.5897 34.7109 16.6116 34.9688 16.5461 35.25C16.3496 36.1406 15.8912 38.0859 15.8039 38.4844C15.6948 39 15.411 39.1172 14.9089 38.8594C11.591 37.1953 9.51728 32.0156 9.51728 27.8203C9.51728 18.8438 15.5856 10.5938 27.0457 10.5938C36.2355 10.5938 43.3953 17.625 43.3953 27.0469C43.3953 36.8672 37.6325 44.7656 29.6433 44.7656C26.9583 44.7656 24.4262 43.2656 23.5749 41.4844C23.5749 41.4844 22.2434 46.9219 21.9159 48.2578C21.3266 50.7422 19.7112 53.8359 18.6198 55.7344C21.1083 56.5547 23.7277 57 26.4781 57C41.1251 57 52.9999 44.25 52.9999 28.5234C53.0435 12.75 41.1688 0 26.5218 0Z" fill="white"/>
</mask>
<g mask="url(#mask0_12_91)">
<rect x="-0.125977" y="-0.115356" width="8.86915" height="57.1371" fill="#1E283C"/>
<rect x="8.74268" y="-0.115356" width="8.86915" height="57.1371" fill="#1E283C"/>
<rect x="17.6123" y="-0.115356" width="8.86915" height="57.1371" fill="#1E283C"/>
<rect x="26.4814" y="-0.115356" width="8.86915" height="57.1371" fill="#1E283C"/>
<rect x="35.2617" y="-0.115356" width="8.86915" height="57.1371" fill="#1E283C"/>
<rect x="44.1309" y="-0.115356" width="8.86915" height="57.1371" fill="#1E283C"/>
</g>
</svg>
