<svg width="62" height="61" viewBox="0 0 62 61" fill="none" xmlns="http://www.w3.org/2000/svg">
<g filter="url(#filter0_i_12_88)">
<path d="M61.0776 12.5482C58.9205 13.4886 56.6032 14.124 54.1672 14.4112C56.6807 12.9314 58.5613 10.6024 59.4578 7.85881C57.0963 9.2389 54.5116 10.2103 51.8163 10.7309C50.0038 8.82684 47.6031 7.5648 44.9868 7.14072C42.3706 6.71664 39.6852 7.15423 37.3477 8.38557C35.0101 9.61691 33.1512 11.5731 32.0594 13.9504C30.9676 16.3278 30.7041 18.9932 31.3098 21.533C26.5247 21.2966 21.8435 20.0729 17.5702 17.9414C13.2968 15.8098 9.52675 12.818 6.50466 9.16014C5.47133 10.9139 4.87716 12.9472 4.87716 15.1127C4.87601 17.0622 5.36394 18.9818 6.29768 20.7012C7.23141 22.4206 8.58208 23.8867 10.2298 24.9693C8.31887 24.9095 6.45008 24.4015 4.77899 23.4875V23.64C4.7788 26.3742 5.74008 29.0242 7.49972 31.1405C9.25935 33.2567 11.709 34.7088 14.4329 35.2503C12.6602 35.7224 10.8016 35.7919 8.99758 35.4537C9.76611 37.8063 11.2631 39.8635 13.2791 41.3375C15.2951 42.8114 17.729 43.6281 20.2402 43.6734C15.9773 46.9659 10.7126 48.7519 5.29308 48.7441C4.33306 48.7443 3.37386 48.6892 2.42041 48.5788C7.92156 52.0588 14.3253 53.9057 20.8654 53.8986C43.0046 53.8986 55.1075 35.8578 55.1075 20.2113C55.1075 19.703 55.0946 19.1896 55.0713 18.6812C57.4255 17.0062 59.4576 14.932 61.0724 12.5558L61.0776 12.5482Z" fill="#1E283C"/>
</g>
<defs>
<filter id="filter0_i_12_88" x="0" y="0" width="62" height="65" filterUnits="userSpaceOnUse" color-interpolation-filters="sRGB">
<feFlood flood-opacity="0" result="BackgroundImageFix"/>
<feBlend mode="normal" in="SourceGraphic" in2="BackgroundImageFix" result="shape"/>
<feColorMatrix in="SourceAlpha" type="matrix" values="0 0 0 0 0 0 0 0 0 0 0 0 0 0 0 0 0 0 127 0" result="hardAlpha"/>
<feOffset dy="4"/>
<feGaussianBlur stdDeviation="7.5"/>
<feComposite in2="hardAlpha" operator="arithmetic" k2="-1" k3="1"/>
<feColorMatrix type="matrix" values="0 0 0 0 0 0 0 0 0 0 0 0 0 0 0 0 0 0 0.2 0"/>
<feBlend mode="normal" in2="shape" result="effect1_innerShadow_12_88"/>
</filter>
</defs>
</svg>
