<svg width="939" height="748" viewBox="0 0 939 748" fill="none" xmlns="http://www.w3.org/2000/svg">
<path d="M1 30C1 13.4315 14.4315 0 31 0H939V747H31C14.4315 747 1 733.569 1 717V30Z" fill="#1B2437"/>
<path fill-rule="evenodd" clip-rule="evenodd" d="M939 678.356V470.5C900 430.049 795 596.29 716 573C638 549.71 548 505.521 470 552.101C392 597.455 314 655.066 235 672.227C157 689.388 79 666.098 40 655.066L1 644.034V714.5C0.598305 725.482 2.90706 730.416 9.5 738C18.2394 745.946 25.324 747.37 40 747C79 747 157 747 235 747C314 747 392 747 470 747C548 747 626 747 704 747C783 747 861 747 900 747H939V678.356Z" fill="#39404F"/>
</svg>
