<svg width="77" height="75" viewBox="0 0 77 75" fill="none" xmlns="http://www.w3.org/2000/svg">
<path d="M27.5651 9.375H48.6256C49.4676 9.375 50.2751 9.70424 50.8704 10.2903L65.737 24.9245C66.3323 25.5106 66.6668 26.3054 66.6668 27.1342V47.8657C66.6668 48.6945 66.3323 49.4894 65.737 50.0754L50.8704 64.7097C50.2751 65.2957 49.4676 65.625 48.6256 65.625H27.5651C26.7231 65.625 25.9156 65.2957 25.3203 64.7097L10.4537 50.0754C9.85839 49.4894 9.52393 48.6945 9.52393 47.8657V27.1343C9.52393 26.3055 9.85839 25.5106 10.4537 24.9245L25.3203 10.2903C25.9156 9.70424 26.7231 9.375 27.5651 9.375Z" stroke="#8957EC" stroke-width="6" stroke-miterlimit="10" stroke-linecap="round" stroke-linejoin="round"/>
<path d="M49.7235 33.388C50.9042 32.2256 50.9192 30.3262 49.7569 29.1454C48.5946 27.9647 46.6951 27.9497 45.5144 29.112L49.7235 33.388ZM34.9205 43.75L32.8159 45.888C33.9836 47.0373 35.8574 47.0373 37.025 45.888L34.9205 43.75ZM30.6758 35.362C29.4951 34.1997 27.5956 34.2147 26.4333 35.3954C25.271 36.5762 25.286 38.4756 26.4667 39.638L30.6758 35.362ZM45.5144 29.112L32.8159 41.612L37.025 45.888L49.7235 33.388L45.5144 29.112ZM37.025 41.612L30.6758 35.362L26.4667 39.638L32.8159 45.888L37.025 41.612Z" fill="#8957EC"/>
</svg>
